<?xml version="1.0" standalone="no"?>
<!DOCTYPE svg PUBLIC "-//W3C//DTD SVG 20010904//EN"
 "http://www.w3.org/TR/2001/REC-SVG-20010904/DTD/svg10.dtd">
<svg version="1.0" xmlns="http://www.w3.org/2000/svg"
 width="916.000000pt" height="560.000000pt" viewBox="0 0 916.000000 560.000000"
 preserveAspectRatio="xMidYMid meet">

<g transform="translate(0.000000,560.000000) scale(0.100000,-0.100000)"
fill="#000000" stroke="none">
<path d="M3063 3220 c-139 -36 -217 -112 -253 -243 -10 -39 -11 -59 0 -105 17
-76 35 -109 87 -160 39 -37 136 -92 163 -92 6 0 18 -4 28 -9 17 -9 105 -36
208 -65 152 -42 224 -117 224 -233 0 -117 -87 -196 -245 -224 -70 -12 -187 0
-244 24 -50 22 -137 86 -184 136 -53 57 -69 62 -92 27 -15 -22 -15 -27 -1 -54
17 -33 91 -102 146 -136 118 -74 301 -105 425 -72 126 33 194 79 245 162 33
55 35 63 35 149 -1 101 -16 143 -76 203 -55 56 -109 82 -249 122 -274 77 -369
137 -385 244 -14 94 37 180 135 225 48 22 68 25 165 25 101 0 115 -3 176 -31
36 -17 84 -46 105 -65 50 -45 68 -51 88 -29 25 27 19 45 -27 88 -63 58 -123
90 -213 113 -98 24 -168 24 -261 0z"/>
<path d="M4261 3225 c-129 -33 -237 -111 -319 -233 -108 -158 -131 -392 -62
-624 14 -47 97 -172 143 -215 96 -89 266 -153 410 -153 154 0 282 62 414 199
44 46 52 68 31 89 -22 22 -44 12 -113 -56 -45 -43 -95 -80 -140 -102 -69 -35
-72 -35 -200 -35 -128 1 -131 1 -205 36 -172 82 -267 224 -285 426 -5 57 -4
83 5 88 6 4 212 6 458 6 346 -1 453 2 472 12 32 16 38 76 16 171 -44 186 -167
324 -338 378 -81 25 -216 31 -287 13z m239 -97 c159 -44 288 -186 298 -330 l4
-58 -426 0 c-353 0 -428 2 -432 14 -3 7 9 49 25 92 88 226 310 344 531 282z"/>
<path d="M5205 1597 c-3 -6 -4 -189 -3 -406 3 -360 4 -395 20 -405 35 -21 41
5 44 176 4 217 8 238 47 275 92 88 216 82 263 -13 16 -34 19 -66 22 -237 3
-162 6 -199 18 -204 8 -3 21 0 29 7 22 18 22 401 1 452 -18 43 -62 89 -99 106
-68 30 -185 3 -244 -56 -13 -13 -27 -21 -30 -18 -4 3 -5 52 -4 108 1 56 -1
130 -5 165 -6 58 -8 63 -30 63 -14 0 -27 -6 -29 -13z"/>
<path d="M3735 1562 c-52 -18 -128 -66 -156 -98 -26 -29 -73 -124 -86 -174 -7
-25 -12 -76 -12 -115 0 -169 78 -301 218 -371 50 -25 67 -28 157 -29 61 0 111
5 127 13 15 6 39 18 54 25 48 22 122 97 148 151 49 99 65 209 45 291 -33 129
-59 176 -134 242 -87 76 -244 105 -361 65z m177 -53 c69 -15 116 -39 154 -81
75 -80 94 -135 94 -263 0 -76 -4 -95 -30 -149 -37 -79 -75 -119 -145 -151
-122 -55 -279 -21 -358 79 -53 68 -69 121 -70 231 0 88 4 107 27 159 38 82 99
138 178 164 76 25 82 25 150 11z"/>
<path d="M7012 1528 c-22 -22 -14 -67 13 -80 33 -15 55 4 55 47 0 42 -40 61
-68 33z"/>
<path d="M4867 1503 c-4 -3 -7 -37 -7 -75 l0 -68 -39 0 c-45 0 -86 -27 -72
-49 5 -7 32 -16 60 -19 l51 -5 0 -207 c0 -228 7 -266 55 -288 54 -25 125 -9
125 28 0 16 -7 20 -38 20 -68 0 -71 9 -72 233 -1 108 1 201 5 207 3 5 24 10
45 10 44 0 90 15 90 29 0 25 -34 41 -85 41 -59 0 -61 2 -64 89 -1 25 -4 48 -7
53 -6 10 -38 11 -47 1z"/>
<path d="M4581 1359 c-18 -6 -54 -32 -81 -60 l-47 -49 -6 41 c-7 50 -18 63
-46 54 -21 -6 -21 -9 -19 -277 3 -244 5 -272 20 -282 36 -22 43 6 49 197 6
204 10 218 78 280 43 39 47 40 121 41 41 1 45 3 48 27 2 20 -2 28 -20 33 -30
8 -56 6 -97 -5z"/>
<path d="M6004 1361 c-71 -18 -145 -86 -172 -156 -27 -72 -34 -148 -18 -207
29 -112 52 -142 151 -199 33 -19 55 -23 125 -23 80 -1 89 1 140 32 68 42 97
77 80 97 -18 21 -33 19 -61 -11 -37 -39 -83 -56 -154 -57 -71 -1 -103 11 -153
58 -35 31 -49 56 -63 115 -14 59 -10 60 221 60 238 0 237 -1 225 77 -19 125
-108 208 -232 218 -32 2 -72 0 -89 -4z m165 -84 c31 -16 52 -37 69 -68 44 -77
40 -79 -168 -79 -203 0 -206 1 -170 66 42 75 87 102 170 103 38 0 69 -7 99
-22z"/>
<path d="M6605 1364 c-111 -29 -164 -125 -119 -220 21 -44 64 -69 177 -105
112 -36 137 -57 137 -114 0 -56 -30 -84 -98 -92 -74 -8 -115 3 -172 48 -54 42
-83 47 -88 14 -3 -24 35 -63 93 -96 52 -29 193 -33 240 -6 74 41 104 100 89
171 -14 66 -45 91 -159 127 -129 41 -166 69 -168 122 -3 99 157 131 253 51 33
-28 60 -26 60 4 0 19 -37 57 -78 80 -25 14 -134 24 -167 16z"/>
<path d="M7371 1363 c-74 -14 -131 -79 -131 -150 0 -91 40 -127 194 -174 83
-25 146 -72 146 -108 0 -37 -43 -84 -90 -98 -62 -18 -122 -3 -189 48 -29 22
-60 39 -69 37 -47 -9 -4 -78 74 -119 67 -34 190 -34 251 0 94 53 109 166 34
241 -17 17 -95 49 -171 71 -58 16 -108 53 -116 85 -27 106 153 154 256 68 53
-45 85 -2 35 48 -43 43 -143 66 -224 51z"/>
<path d="M7015 1351 c-3 -6 -6 -129 -6 -276 -1 -268 2 -295 36 -295 29 0 35
52 35 296 0 150 -4 253 -10 265 -11 20 -45 26 -55 10z"/>
</g>
</svg>
