<?xml version="1.0" standalone="no"?>
<!DOCTYPE svg PUBLIC "-//W3C//DTD SVG 20010904//EN"
 "http://www.w3.org/TR/2001/REC-SVG-20010904/DTD/svg10.dtd">
<svg version="1.0" xmlns="http://www.w3.org/2000/svg"
 width="1920.000000pt" height="544.000000pt" viewBox="0 0 1920.000000 544.000000"
 preserveAspectRatio="xMidYMid meet">

<g transform="translate(0.000000,544.000000) scale(0.100000,-0.100000)"
fill="#000000" stroke="none">
<path d="M6815 3721 c-22 -5 -67 -16 -100 -25 -32 -9 -66 -16 -75 -16 -8 0
-31 -8 -50 -18 -19 -11 -48 -22 -64 -26 -16 -4 -41 -16 -54 -27 -14 -10 -33
-19 -44 -19 -10 0 -36 -9 -58 -20 -22 -11 -45 -20 -51 -20 -14 0 -115 -67
-224 -150 -71 -53 -157 -141 -151 -155 2 -7 23 -15 46 -19 22 -3 57 -15 78
-26 20 -11 42 -20 48 -20 6 0 39 -26 73 -57 63 -58 123 -138 136 -183 4 -14
12 -28 17 -31 18 -11 28 -84 28 -204 0 -99 -3 -125 -18 -150 -10 -16 -22 -42
-25 -57 -4 -15 -17 -42 -30 -61 -60 -88 -112 -131 -236 -196 -64 -33 -65 -33
-180 -29 -120 5 -154 15 -247 74 -61 39 -134 116 -134 142 0 5 -9 17 -19 26
-11 10 -22 30 -26 44 -18 74 -85 84 -85 14 0 -10 -10 -35 -22 -57 -21 -37 -23
-52 -23 -205 1 -135 4 -173 19 -210 10 -25 20 -57 23 -72 3 -14 16 -37 29 -49
13 -12 24 -28 24 -34 0 -30 107 -95 211 -129 24 -8 62 -21 84 -30 29 -11 80
-15 187 -16 124 0 156 3 200 20 29 11 60 20 68 20 9 0 34 9 55 21 22 12 76 31
120 44 44 13 93 28 108 34 16 6 39 11 51 11 13 0 29 6 35 14 6 7 24 16 40 19
26 6 77 34 126 72 37 28 96 65 103 65 17 0 315 285 366 350 11 14 41 50 68 81
26 30 48 60 48 66 0 6 7 16 16 24 9 7 23 30 31 51 8 21 19 38 23 38 5 0 11 13
15 29 3 16 15 37 26 47 10 9 19 25 19 34 0 10 9 29 20 43 11 14 20 31 20 39 0
7 10 33 21 58 12 25 25 70 29 100 4 30 16 75 25 100 20 52 15 158 -10 229 -8
24 -15 60 -15 80 0 24 -9 49 -25 71 -14 19 -25 38 -25 43 0 11 -114 127 -125
127 -4 0 -20 11 -37 25 -16 14 -39 25 -52 25 -12 0 -33 8 -46 18 -21 14 -51
17 -185 19 -88 1 -178 -2 -200 -6z"/>
<path d="M11518 3393 c-31 -24 -38 -36 -43 -79 -9 -66 12 -110 62 -131 47 -19
95 -10 135 26 27 24 32 35 32 79 1 46 -3 55 -34 86 -51 50 -103 56 -152 19z"/>
<path d="M8530 3361 c-14 -4 -42 -15 -62 -24 -21 -9 -42 -17 -49 -17 -46 0
-259 -175 -259 -214 0 -8 -11 -27 -25 -42 -14 -15 -25 -32 -25 -39 0 -7 -8
-23 -19 -36 -10 -13 -21 -49 -25 -79 -4 -30 -11 -85 -17 -121 -13 -87 11 -280
41 -321 11 -15 20 -33 20 -40 0 -6 18 -42 40 -80 54 -89 152 -176 250 -219
115 -51 113 -51 252 -51 124 -1 138 1 166 21 17 11 45 24 64 28 18 3 44 14 57
25 13 10 29 18 36 18 19 0 195 194 195 217 0 4 7 22 16 38 59 113 80 328 44
468 -18 73 -56 164 -85 206 -32 47 -168 172 -210 193 -113 58 -165 72 -275 75
-58 1 -116 -2 -130 -6z m278 -212 c75 -37 139 -106 184 -197 l33 -67 0 -171
c0 -144 -3 -175 -16 -190 -9 -11 -19 -30 -22 -44 -11 -45 -119 -170 -147 -170
-10 0 -30 -10 -45 -22 -24 -19 -40 -21 -154 -22 -137 -1 -122 -6 -219 69 -72
56 -113 124 -146 245 -30 108 -33 204 -10 265 9 22 19 56 25 77 19 78 100 173
190 226 51 29 60 31 160 31 99 1 110 -1 167 -30z"/>
<path d="M11065 3358 c-3 -7 -4 -296 -3 -643 l3 -630 91 -3 c68 -2 93 1 95 10
2 7 2 297 -1 643 l-5 630 -88 3 c-64 2 -89 -1 -92 -10z"/>
<path d="M10493 3273 l-23 -4 0 -493 c0 -485 0 -494 22 -547 32 -79 43 -93 98
-123 46 -25 55 -26 167 -24 l118 3 3 73 c2 46 -2 79 -9 88 -8 9 -33 14 -79 14
-72 0 -84 7 -108 63 -18 43 -17 477 2 502 12 16 27 19 95 20 61 0 84 4 91 15
14 22 12 114 -2 128 -7 7 -42 12 -86 12 -113 0 -112 -1 -112 140 0 108 -2 120
-19 130 -19 10 -113 12 -158 3z"/>
<path d="M12195 3000 c-44 -9 -124 -50 -169 -87 -38 -32 -86 -98 -86 -120 0
-9 -11 -33 -25 -53 -22 -32 -26 -50 -31 -156 -6 -122 -3 -148 36 -259 17 -50
33 -72 97 -132 41 -40 81 -73 87 -73 6 0 29 -10 51 -22 35 -19 57 -21 180 -22
130 -1 142 1 172 22 17 12 38 22 47 22 9 0 50 34 91 76 70 70 76 80 73 113
l-3 36 -85 3 -85 2 -29 -40 c-17 -22 -33 -40 -37 -40 -4 0 -22 -12 -40 -27
-29 -25 -40 -28 -110 -28 -67 0 -81 3 -101 23 -14 12 -29 22 -34 22 -29 0
-114 136 -114 183 0 14 10 37 21 51 l22 28 305 -6 c222 -5 308 -3 318 5 19 16
18 123 -2 174 -9 22 -19 57 -23 77 -5 20 -22 53 -39 73 -46 52 -100 105 -108
105 -3 0 -19 9 -34 20 -47 33 -243 50 -345 30z m200 -138 c59 -7 104 -48 144
-130 50 -104 55 -102 -200 -102 l-209 0 -11 28 c-6 15 -8 45 -6 67 4 32 15 48
54 83 26 23 59 45 73 48 14 3 39 9 55 13 17 5 37 6 45 3 8 -3 33 -7 55 -10z"/>
<path d="M13364 3001 c-52 -9 -90 -37 -168 -126 -24 -27 -47 -47 -51 -43 -4 4
-7 33 -7 64 0 31 -4 68 -9 81 -8 23 -12 24 -91 21 l-83 -3 -3 -457 -2 -458 89
0 c50 0 93 5 96 10 3 6 6 124 6 263 l-1 252 28 64 c20 45 42 77 73 103 41 34
50 38 127 44 95 8 95 8 89 112 -2 41 -9 67 -18 73 -15 10 -16 10 -75 0z"/>
<path d="M9444 2986 c-3 -8 -4 -163 -2 -343 l5 -328 36 -70 c45 -87 60 -103
121 -139 46 -27 57 -29 162 -30 103 -1 115 1 141 22 15 12 38 27 49 33 12 6
27 22 33 35 6 13 23 30 37 36 23 11 28 10 40 -7 8 -10 14 -35 14 -56 0 -51 16
-60 100 -57 l71 3 2 452 c2 369 0 454 -11 458 -26 10 -161 5 -167 -6 -4 -6 -6
-112 -6 -235 2 -176 -2 -241 -14 -297 -9 -40 -21 -79 -26 -87 -5 -8 -15 -28
-22 -45 -8 -16 -20 -35 -28 -42 -17 -14 -120 -51 -134 -47 -76 17 -128 40
-150 66 -14 16 -25 34 -25 39 0 5 -8 18 -17 29 -16 18 -19 54 -23 323 l-5 302
-88 3 c-70 2 -88 0 -93 -12z"/>
<path d="M11495 2990 c-10 -15 -6 -893 3 -902 5 -5 47 -8 93 -6 l84 3 5 445
c4 379 3 447 -9 458 -18 15 -167 17 -176 2z"/>
</g>
</svg>
