<?xml version="1.0" standalone="no"?>
<!DOCTYPE svg PUBLIC "-//W3C//DTD SVG 20010904//EN"
 "http://www.w3.org/TR/2001/REC-SVG-20010904/DTD/svg10.dtd">
<svg version="1.0" xmlns="http://www.w3.org/2000/svg"
 width="1146.000000pt" height="792.000000pt" viewBox="0 0 1146.000000 792.000000"
 preserveAspectRatio="xMidYMid meet">

<g transform="translate(0.000000,792.000000) scale(0.100000,-0.100000)"
fill="#000000" stroke="none">
<path d="M2667 6390 c-33 -28 -37 -37 -37 -80 0 -56 26 -95 76 -116 50 -21 70
-17 113 21 30 28 40 45 46 81 6 42 4 47 -29 81 -28 29 -44 37 -84 41 -44 4
-52 1 -85 -28z"/>
<path d="M2963 6052 c-25 -4 -57 -44 -87 -107 -22 -46 -34 -195 -19 -228 6
-12 19 -49 29 -82 10 -33 40 -100 66 -150 155 -298 158 -304 158 -346 0 -31
-8 -51 -31 -80 -28 -36 -35 -39 -80 -39 -51 0 -75 10 -344 140 -117 57 -206
80 -310 80 -98 0 -185 -24 -242 -67 -61 -47 -51 -82 35 -120 32 -13 80 -35
107 -47 111 -52 238 -108 273 -121 20 -7 69 -27 107 -45 117 -53 353 -155 480
-207 33 -14 78 -33 101 -44 22 -10 44 -19 48 -19 4 0 32 -12 62 -26 80 -38
109 -29 192 54 125 126 133 148 87 234 -14 26 -25 54 -25 62 0 8 -18 46 -40
85 -22 39 -40 73 -40 77 0 6 -119 252 -191 396 -22 42 -39 83 -39 92 0 9 -4
16 -10 16 -5 0 -10 4 -10 10 0 14 -143 304 -152 308 -5 2 -8 10 -8 18 0 23
-68 151 -82 156 -7 2 -23 2 -35 0z m497 -1312 c0 -13 -7 -20 -20 -20 -18 0
-19 2 -8 20 7 11 16 20 20 20 5 0 8 -9 8 -20z"/>
<path d="M1743 5425 c-12 -8 -29 -35 -39 -60 -16 -43 -16 -47 0 -84 42 -92
169 -93 216 -1 21 40 21 41 1 85 -12 27 -31 49 -50 59 -38 20 -100 21 -128 1z"/>
<path d="M7547 5022 c-35 -21 -53 -81 -36 -114 18 -34 40 -47 80 -48 43 0 89
39 89 77 0 36 -28 83 -56 93 -34 13 -44 12 -77 -8z"/>
<path d="M8126 5004 c-13 -13 -16 -42 -16 -157 0 -78 -4 -149 -10 -157 -7 -11
-27 -14 -87 -11 -94 3 -129 -8 -135 -44 -9 -45 12 -55 122 -55 76 0 99 -3 103
-14 3 -8 6 -214 7 -458 0 -254 5 -458 10 -479 15 -53 65 -117 106 -134 53 -22
163 -19 192 4 24 21 29 50 10 69 -7 7 -40 12 -77 12 -71 0 -96 13 -119 60 -9
19 -12 136 -10 480 l3 455 137 5 c148 5 165 11 154 55 -9 37 -41 45 -177 45
l-119 0 0 148 c0 117 -3 152 -16 170 -18 26 -56 29 -78 6z"/>
<path d="M1564 4871 c-80 -49 -60 -186 29 -207 62 -15 102 -1 132 46 37 58 33
94 -14 141 -32 32 -46 39 -77 39 -22 0 -53 -9 -70 -19z"/>
<path d="M1962 4757 c-41 -51 -5 -173 77 -261 89 -95 214 -153 551 -256 98
-30 140 -70 140 -132 0 -83 -41 -122 -162 -156 -133 -37 -329 -110 -387 -144
-62 -36 -173 -144 -197 -191 -53 -102 -50 -187 6 -187 25 0 159 44 270 89 25
10 70 28 100 39 78 28 221 82 245 92 11 5 56 21 100 36 44 15 134 48 200 74
66 26 138 53 160 60 22 7 73 28 114 47 40 18 82 33 93 33 10 0 35 12 54 28
l34 27 0 130 c0 72 -3 140 -6 152 -4 15 -25 31 -59 48 -30 14 -58 25 -63 25
-8 0 -82 30 -147 60 -11 5 -42 16 -69 25 -27 9 -73 27 -103 40 -29 14 -60 25
-68 25 -8 0 -34 9 -57 19 -24 10 -68 28 -98 39 -30 11 -102 38 -160 60 -58 22
-145 55 -195 73 -49 17 -103 37 -120 44 -16 7 -48 18 -70 25 -22 7 -51 18 -65
25 -40 20 -106 27 -118 12z"/>
<path d="M4213 4700 c-67 -10 -169 -58 -210 -99 -17 -18 -43 -55 -57 -84 -22
-43 -26 -65 -26 -136 0 -98 19 -148 78 -206 68 -67 117 -90 317 -150 212 -63
259 -91 296 -170 53 -115 -16 -237 -160 -282 -26 -9 -84 -15 -136 -14 -139 0
-203 30 -327 149 -56 55 -70 64 -92 58 -30 -7 -50 -39 -42 -69 7 -29 101 -127
152 -159 21 -14 75 -38 119 -54 70 -24 94 -28 195 -28 72 0 130 5 155 13 91
31 145 63 186 109 60 66 82 132 77 225 -9 169 -110 259 -368 327 -130 35 -262
95 -302 137 -33 35 -53 106 -44 157 9 48 74 120 135 149 38 18 63 22 151 22
97 0 110 -2 171 -31 37 -18 84 -47 105 -67 53 -47 78 -53 104 -27 39 39 5 96
-102 165 -81 53 -254 83 -375 65z"/>
<path d="M5408 4700 c-127 -22 -205 -66 -297 -166 -117 -128 -167 -284 -158
-493 5 -135 27 -214 84 -309 103 -170 271 -268 483 -280 106 -6 167 7 267 55
97 46 233 172 233 215 0 25 -31 58 -53 58 -5 0 -37 -28 -71 -63 -130 -134
-277 -181 -453 -148 -112 22 -238 107 -299 204 -47 73 -89 220 -82 287 l3 35
466 5 c392 4 469 7 484 20 15 13 17 26 12 100 -7 108 -27 166 -90 262 -58 89
-140 155 -239 192 -71 27 -214 39 -290 26z m164 -111 c120 -26 246 -111 291
-197 31 -60 58 -148 50 -167 -4 -13 -61 -15 -417 -13 l-411 3 1 32 c2 44 53
150 94 197 57 65 168 129 255 149 37 9 84 7 137 -4z"/>
<path d="M6238 4699 c-20 -11 -25 -67 -9 -97 10 -17 64 -151 86 -210 6 -18 17
-38 23 -44 7 -7 12 -21 12 -33 0 -12 4 -25 8 -31 5 -5 19 -34 31 -64 13 -30
30 -71 38 -90 8 -19 19 -44 23 -55 5 -11 38 -87 73 -170 36 -82 73 -170 82
-195 10 -25 37 -87 61 -137 36 -78 47 -93 66 -93 13 0 28 4 35 8 11 7 59 110
105 227 19 48 29 71 63 149 8 19 15 37 15 41 0 3 9 25 19 49 11 23 30 67 41
97 12 29 32 77 46 107 13 29 24 55 24 57 0 3 8 24 19 48 10 23 28 67 41 97 12
30 31 73 41 95 36 77 79 190 79 207 0 21 -26 48 -46 48 -25 0 -74 -56 -74 -83
0 -14 -3 -27 -7 -29 -8 -3 -63 -125 -87 -193 -7 -22 -30 -76 -50 -120 -47
-103 -52 -113 -66 -155 -17 -50 -30 -81 -47 -115 -8 -16 -28 -64 -43 -105 -39
-104 -92 -220 -102 -220 -8 0 -36 57 -93 185 -7 17 -17 42 -20 58 -4 15 -11
27 -16 27 -5 0 -9 6 -9 14 0 7 -25 74 -56 147 -30 74 -68 166 -84 204 -71 178
-154 361 -168 373 -19 14 -31 15 -54 1z"/>
<path d="M7557 4682 c-15 -17 -17 -72 -17 -585 0 -408 3 -573 12 -592 14 -31
62 -35 78 -6 15 30 14 1173 -2 1189 -18 18 -53 15 -71 -6z"/>
<path d="M9070 4677 c-36 -12 -67 -24 -70 -28 -3 -3 -20 -14 -38 -23 -71 -37
-202 -193 -218 -261 -4 -16 -10 -34 -14 -40 -21 -28 -35 -130 -34 -245 1 -198
52 -340 163 -455 66 -68 137 -115 217 -144 85 -30 243 -30 328 0 79 28 162 85
220 151 25 28 49 49 53 45 4 -5 7 -38 8 -75 0 -78 22 -122 61 -122 53 0 54 11
54 597 0 594 1 583 -60 583 -38 0 -54 -29 -52 -97 1 -29 -2 -62 -6 -73 -7 -18
-14 -14 -62 44 -30 36 -59 65 -63 65 -10 1 -71 44 -75 54 -2 4 -11 7 -20 7 -9
0 -41 9 -70 20 -75 29 -232 27 -322 -3z m360 -113 c128 -62 213 -178 251 -345
20 -85 21 -104 12 -194 -15 -140 -44 -220 -107 -297 -65 -78 -105 -109 -186
-143 -59 -25 -72 -27 -170 -23 -93 4 -113 8 -172 37 -99 48 -197 165 -227 271
-8 25 -17 58 -22 74 -5 16 -9 79 -9 140 0 179 48 306 151 401 101 92 164 115
309 112 95 -2 111 -5 170 -33z"/>
<path d="M3305 3651 c-27 -10 -104 -46 -170 -78 -66 -33 -138 -68 -160 -77
-22 -10 -51 -24 -65 -32 -14 -8 -41 -22 -60 -30 -42 -18 -379 -183 -610 -297
-187 -93 -196 -104 -138 -158 62 -57 104 -72 211 -77 58 -3 108 0 120 6 12 6
40 16 62 23 50 15 116 45 178 81 26 15 53 28 59 28 6 0 19 6 27 14 31 27 199
106 227 106 15 0 45 -8 66 -17 32 -14 41 -26 58 -70 22 -59 24 -73 12 -73 -5
0 -16 -19 -27 -42 -10 -24 -42 -92 -70 -153 -46 -96 -65 -142 -118 -279 -6
-16 -11 -79 -11 -140 0 -121 8 -148 63 -223 48 -66 83 -58 122 27 17 38 19 42
74 170 34 79 76 172 96 212 5 10 9 23 9 29 0 6 13 39 29 73 16 33 52 115 79
181 59 142 133 310 167 380 39 80 75 177 75 202 0 39 -24 75 -101 147 -100 93
-117 99 -204 67z"/>
<path d="M1585 3528 c-53 -29 -65 -49 -65 -109 0 -51 3 -60 30 -82 57 -49 112
-46 168 6 27 26 32 38 32 78 0 43 -4 51 -42 83 -44 38 -84 46 -123 24z"/>
<path d="M6316 3058 c-11 -41 -7 -788 4 -809 14 -26 45 -24 64 3 13 18 16 55
16 196 0 199 7 227 68 267 79 52 168 43 212 -22 24 -36 25 -42 27 -236 2 -130
7 -205 14 -213 16 -20 47 -17 59 5 17 32 13 388 -5 448 -38 129 -200 172 -325
88 -28 -19 -50 -28 -50 -22 -1 7 -1 74 0 150 1 151 -4 167 -50 167 -20 0 -29
-6 -34 -22z"/>
<path d="M4877 3040 c-147 -37 -253 -164 -278 -330 -35 -240 89 -439 300 -481
177 -34 346 49 423 209 29 60 33 78 36 173 5 124 -10 188 -59 262 -47 71 -82
102 -155 138 -55 27 -79 33 -147 35 -45 2 -99 -1 -120 -6z m225 -102 c52 -22
107 -76 136 -135 26 -53 32 -81 33 -166 1 -131 -49 -231 -145 -290 -39 -24
-63 -31 -123 -35 -123 -8 -201 28 -265 123 -81 121 -73 312 17 426 79 98 221
130 347 77z"/>
<path d="M8109 2974 c-14 -39 11 -74 55 -74 40 0 61 34 46 75 -8 21 -16 25
-50 25 -35 0 -42 -4 -51 -26z"/>
<path d="M5976 2958 c-3 -13 -6 -49 -6 -80 l0 -58 -49 0 c-52 0 -76 -16 -65
-44 8 -21 44 -36 85 -36 l29 0 0 -207 c1 -244 7 -268 76 -292 56 -20 110 -9
118 25 9 35 0 44 -43 44 -20 0 -42 5 -49 12 -9 9 -12 70 -12 215 l0 203 53 0
c66 0 92 17 83 53 -6 24 -11 26 -69 29 l-62 3 -6 65 c-6 80 -12 90 -48 90 -21
0 -30 -6 -35 -22z"/>
<path d="M1774 2901 c-65 -40 -82 -106 -44 -169 37 -60 126 -68 180 -17 31 30
46 84 31 112 -5 10 -12 26 -15 35 -7 24 -65 58 -96 58 -14 0 -39 -9 -56 -19z"/>
<path d="M5694 2826 c-18 -8 -50 -31 -73 -51 -28 -26 -41 -32 -41 -22 0 34
-23 67 -46 67 -42 0 -45 -24 -42 -306 3 -222 5 -266 18 -274 14 -9 47 -5 60 7
3 3 7 89 10 193 l5 188 30 44 c45 63 91 91 139 85 50 -7 76 6 76 38 0 43 -71
59 -136 31z"/>
<path d="M7100 2820 c-70 -24 -129 -85 -159 -165 -45 -119 -16 -280 66 -357
73 -70 221 -98 308 -59 101 45 157 110 119 138 -27 20 -38 16 -90 -26 -115
-95 -275 -49 -330 96 -29 74 -32 73 209 73 248 0 244 -1 233 81 -15 108 -73
181 -176 220 -63 24 -110 24 -180 -1z m146 -75 c64 -19 124 -82 124 -129 0
-14 -23 -16 -180 -16 -99 0 -180 2 -180 4 0 2 7 19 15 37 25 57 53 84 112 105
48 17 50 17 109 -1z"/>
<path d="M7680 2813 c-32 -16 -65 -42 -77 -62 -43 -64 -23 -164 40 -206 14 -9
67 -30 120 -48 111 -39 145 -59 153 -91 8 -32 -15 -77 -46 -93 -33 -17 -123
-16 -163 1 -18 7 -45 28 -61 45 -34 36 -70 40 -86 10 -15 -26 5 -58 61 -98 97
-71 273 -62 340 15 66 78 39 206 -54 248 -18 8 -65 25 -106 37 -80 25 -141 68
-141 101 0 74 102 111 200 72 22 -9 40 -20 40 -25 0 -4 9 -13 20 -19 46 -24
83 38 43 72 -48 40 -95 59 -160 64 -61 5 -74 3 -123 -23z"/>
<path d="M8465 2824 c-73 -27 -115 -86 -115 -161 0 -77 63 -134 185 -168 119
-34 162 -70 150 -125 -9 -42 -60 -70 -124 -70 -63 0 -107 18 -145 59 -41 43
-96 41 -96 -4 0 -31 80 -100 139 -120 129 -44 288 19 307 122 19 99 -36 164
-172 206 -109 34 -151 58 -160 92 -24 97 122 140 230 67 38 -26 51 -30 67 -22
26 14 24 52 -3 78 -59 54 -182 76 -263 46z"/>
<path d="M8133 2822 c-16 -10 -16 -21 -15 -315 l2 -257 26 -12 c52 -24 55 -5
52 307 l-3 280 -25 3 c-14 1 -30 -1 -37 -6z"/>
<path d="M2731 1952 c-26 -22 -34 -37 -38 -75 -9 -81 32 -127 116 -127 61 0
102 40 108 106 5 47 3 53 -30 87 -29 32 -41 37 -79 37 -33 0 -52 -7 -77 -28z"/>
</g>
</svg>
